<svg width="24" height="24" viewBox="0 0 24 24" fill="none" xmlns="http://www.w3.org/2000/svg">
<path fill-rule="evenodd" clip-rule="evenodd" d="M16.1101 4.03002C18.8101 6.74002 19.3301 10.8 17.6601 14.02L22.1101 18.46C22.9101 19.27 22.9101 20.58 22.1101 21.38L21.3501 22.14C20.9601 22.53 20.4401 22.74 19.8901 22.74C19.3401 22.74 18.8201 22.53 18.4301 22.14L13.9801 17.69C12.7501 18.33 11.4001 18.65 10.0501 18.65C7.86012 18.65 5.67012 17.81 4.00012 16.14C0.660117 12.8 0.660117 7.38002 4.00012 4.03002C5.67012 2.36002 7.86012 1.53002 10.0601 1.52002C12.2501 1.52002 14.4401 2.36002 16.1101 4.03002ZM5.06012 5.09002C2.31012 7.85002 2.31012 12.33 5.06012 15.08C6.39012 16.42 8.17012 17.15 10.0501 17.15C11.9301 17.15 13.7101 16.41 15.0401 15.08C17.7901 12.32 17.7901 7.84002 15.0401 5.09002C13.7101 3.75002 11.9401 3.02002 10.0501 3.02002C8.17012 3.02002 6.39012 3.76002 5.06012 5.09002ZM20.2901 21.08L21.0501 20.32C21.2601 20.1 21.2601 19.75 21.0501 19.53L16.9201 15.4L15.3701 16.95L19.5001 21.08C19.7101 21.29 20.0801 21.29 20.2901 21.08ZM5.67012 7.49002C5.96012 7.20002 6.44012 7.20002 6.73012 7.49002C7.02012 7.79002 7.02012 8.26002 6.73012 8.55002C5.88012 9.40002 5.88012 10.77 6.73012 11.62C7.02012 11.91 7.02012 12.39 6.73012 12.68C6.58012 12.83 6.39012 12.9 6.20012 12.9C6.01012 12.9 5.82012 12.83 5.67012 12.68C4.24012 11.25 4.24012 8.92002 5.67012 7.49002Z" fill="#00C3CC"/>
</svg>
